<svg width="122" height="42" viewBox="0 0 122 42" fill="none" xmlns="http://www.w3.org/2000/svg">
<path d="M13.7539 21.8652H5.87891V30H1.77734V10.0938H14.7383V13.416H5.87891V18.5566H13.7539V21.8652ZM27.0785 30H22.977V10.0938H27.0785V30ZM40.5945 26.7051H49.3035V30H36.493V10.0938H40.5945V26.7051Z" fill="white"/>
<path d="M96.1387 30H92.0371V10.0938H96.1387V30ZM112.922 16.957L116.655 10.0938H121.371L115.575 19.9648L121.522 30H116.75L112.922 23.0273L109.094 30H104.323L110.27 19.9648L104.473 10.0938H109.19L112.922 16.957Z" fill="white"/>
<path d="M63.1758 7.40625L69.75 25.9688L76.2891 7.40625H83.2148V33H77.9238V26.0039L78.4512 13.9277L71.543 33H67.9219L61.0312 13.9453L61.5586 26.0039V33H56.2852V7.40625H63.1758Z" fill="#FF3D3D"/>
</svg>
