<svg width="24" height="24" viewBox="0 0 24 24" fill="none" xmlns="http://www.w3.org/2000/svg">
<path d="M9.49999 0.125C11.2475 0.12493 12.9602 0.613267 14.4448 1.5349C15.9295 2.45654 17.127 3.77479 17.9023 5.34088C18.6775 6.90697 18.9996 8.65857 18.8323 10.398C18.6649 12.1374 18.0147 13.7955 16.955 15.185L22.8837 21.1163C23.1079 21.3412 23.2381 21.643 23.2478 21.9605C23.2575 22.2779 23.146 22.5871 22.9359 22.8253C22.7259 23.0636 22.4331 23.2129 22.1169 23.243C21.8007 23.2731 21.485 23.1818 21.2337 22.9875L21.1162 22.8838L15.185 16.955C14.0012 17.8576 12.6196 18.4654 11.1543 18.728C9.68902 18.9906 8.18228 18.9005 6.75875 18.4651C5.33521 18.0298 4.03581 17.2617 2.96806 16.2244C1.90032 15.1872 1.09492 13.9106 0.618529 12.5002C0.142134 11.0899 0.00843276 9.5864 0.228488 8.11414C0.448543 6.64188 1.01603 5.24318 1.88399 4.03378C2.75195 2.82439 3.89542 1.83907 5.2198 1.15936C6.54418 0.479644 8.01138 0.125079 9.49999 0.125ZM9.49999 2.625C7.67663 2.625 5.92795 3.34933 4.63864 4.63864C3.34932 5.92795 2.62499 7.67664 2.62499 9.5C2.62499 11.3234 3.34932 13.072 4.63864 14.3614C5.92795 15.6507 7.67663 16.375 9.49999 16.375C11.3234 16.375 13.072 15.6507 14.3614 14.3614C15.6507 13.072 16.375 11.3234 16.375 9.5C16.375 7.67664 15.6507 5.92795 14.3614 4.63864C13.072 3.34933 11.3234 2.625 9.49999 2.625Z" fill="#FF3D3D"/>
</svg>
